 <svg
    width="14"
    height="14"
    viewBox="0 0 16 16"
    fill="none"
    xmlns="http://www.w3.org/2000/svg"
  >
    <path
      fillRule="evenodd"
      clipRule="evenodd"
      d="M9.98758 10.8712C7.77902 12.6401 4.54616 12.5009 2.49884 10.4536C0.302144 8.25685 0.302144 4.6953 2.49884 2.4986C4.69554 0.301899 8.25709 0.3019 10.4538 2.4986C12.5011 4.54592 12.6403 7.77877 10.8715 9.98733L15.1678 14.2837C15.4119 14.5278 15.4119 14.9235 15.1678 15.1676C14.9237 15.4117 14.528 15.4117 14.2839 15.1676L9.98758 10.8712ZM3.38273 9.56967C1.67418 7.86112 1.67418 5.09103 3.38273 3.38248C5.09127 1.67394 7.86137 1.67394 9.56991 3.38248C11.2772 5.08977 11.2785 7.85706 9.57367 9.5659C9.57241 9.56714 9.57115 9.56839 9.5699 9.56965C9.56864 9.5709 9.56739 9.57216 9.56615 9.57342C7.85731 11.2782 5.09002 11.277 3.38273 9.56967Z"
      fill="484848"
      stroke="484848"
      strokeLinecap="round"
    />
  </svg>